<svg id="Layer_1" data-name="Layer 1" xmlns="http://www.w3.org/2000/svg" viewBox="0 0 677 677"><defs><style>.cls-1{stroke:#000;stroke-miterlimit:10;}.cls-2{fill:#fff;}</style></defs><circle class="cls-1" cx="338.5" cy="338.5" r="338"/><path class="cls-2" d="M887.86,703.39c2.84-9,8.76-16.64,14.52-24q9.3-11.89,19.1-23.4t19.9-22.41c6.37-6.88,13-13.5,19.25-20.5,6.69-7.52,12.89-15.6,17.06-24.81.79-1.75-1.79-3.28-2.59-1.52-7.62,16.84-21.67,29.51-34.06,42.79q-20.68,22.19-39.46,46.05c-6.54,8.31-13.39,16.78-16.62,27-.58,1.84,2.32,2.63,2.9.79Z" transform="translate(-621.95 -201.32)"/><path class="cls-2" d="M978,587.2a116.63,116.63,0,0,0,3.69-61.1,46,46,0,0,0-1.79-7c-.69-1.79-1.83-3.58-3.82-4.06-2.39-.57-4.45,1-6.31,2.29s-4,2.69-6,4.07c-8.06,5.59-16.21,11.65-22.41,19.32-2.92,3.62-5.53,8.23-4.28,13a16.58,16.58,0,0,0,3.42,5.93,37.54,37.54,0,0,1,3.87,5.72c4.28,8.12,5,17.74,5.53,26.73a5.07,5.07,0,0,1-.36,3,4.23,4.23,0,0,1-2.7,1.43c-1.87.47-3.78.71-5.66,1.07-3.78.72-7.73,2.12-9.56,5.8a25.65,25.65,0,0,0-1.71,6.57c-.37,1.88-1,4-2.63,5.16-3.52,2.59-4.87-3-4.9-5.37a35.56,35.56,0,0,1,.87-6.8c.48-2.59,1.09-5.16,1.81-7.69s1.53-4.88,2.44-7.27,1.72-4.8.87-7.19c-1.24-3.51-6.71-5-8.32-1-.92,2.3-1.08,5.12-1.42,7.56-.36,2.67-.64,5.36-.82,8.06s-.24,5.45-.21,8.17l2.95-.4A75.24,75.24,0,0,1,916.85,576c.07-1.56-2-1.94-2.8-.76-2.6,4.07-4,8.71-5.16,13.35A94.74,94.74,0,0,0,906,603.28a29.47,29.47,0,0,0,2.25,14.28c1.57,3.71,4.5,8.88,1.55,12.66a6,6,0,0,1-10.33-1.43c-.7-1.78-3.6-1-2.9.8a9.15,9.15,0,0,0,10.45,5.79A9.27,9.27,0,0,0,914,625.19c-.58-5.25-4-9.67-4.81-14.89-.87-5.54.28-11.22,1.54-16.6,1.36-5.83,2.65-11.88,5.91-17l-2.79-.76A77.64,77.64,0,0,0,917.62,604a1.51,1.51,0,0,0,3-.4,107.15,107.15,0,0,1,1-15.91q.26-1.79.57-3.57c.11-.63.22-1.26.35-1.89.09-.46.15-1.39.55-1.71,1.22-1,2.57,1.12,2.65,2.1.2,2.4-1.29,5-2.06,7.18q-1.27,3.63-2.2,7.36c-.6,2.4-1.1,4.84-1.49,7.29a28.35,28.35,0,0,0-.55,6.09c.19,3.13,1.31,6.92,4.67,7.93,4,1.2,7.05-2.32,8.22-5.71,1.3-3.76.65-8.44,4.62-10.69,3.26-1.85,7.32-1.77,10.88-2.69,1.89-.5,3.75-1.41,4.59-3.28s.49-4.35.34-6.45a113.64,113.64,0,0,0-1.57-13.26A45.24,45.24,0,0,0,947,564a34.71,34.71,0,0,0-3.66-5.54c-1.33-1.7-2.86-3.44-3.42-5.58-1.22-4.7,2.58-9.19,5.5-12.4a92.14,92.14,0,0,1,10.41-9.63c3.73-3,7.63-5.73,11.57-8.42,1.91-1.31,3.8-2.69,5.78-3.88.79-.48,1.77-1,2.64-.43a4.54,4.54,0,0,1,1.36,2.36,83.26,83.26,0,0,1,2.92,14.34,114,114,0,0,1-2.91,44.55c-.63,2.36-1.35,4.69-2.14,7-.62,1.84,2.28,2.62,2.89.8Z" transform="translate(-621.95 -201.32)"/><path class="cls-2" d="M898,627.39c-3.46-3-6.89-6-10.38-8.89a8,8,0,0,0-5.29-2.09,11.84,11.84,0,0,1-5.27-1.15c-7.45-3.77-9.71-12.94-12.3-20.16l-5.28-14.8c-.65-1.81-3.55-1-2.89.8l4.79,13.41c1.48,4.15,2.83,8.39,4.67,12.41a24,24,0,0,0,7.06,9.39,16,16,0,0,0,4.9,2.54,13.87,13.87,0,0,0,2.63.5,14.13,14.13,0,0,1,3.26.25,8.83,8.83,0,0,1,2.63,1.91l3,2.56,6.35,5.44c1.46,1.25,3.6-.86,2.13-2.12Z" transform="translate(-621.95 -201.32)"/><path class="cls-2" d="M860.74,581.68l-1.22-56.36c-.1-4.64-.14-9.29-.33-13.92a48.32,48.32,0,0,0-1.92-12.77c-2.41-7.51-7.67-14-9.36-21.71-1.27-5.85.13-14.27,6.62-16.4,1.83-.59,1.05-3.49-.8-2.89-6.16,2-9,8.32-9.22,14.42-.3,7.78,4,14.52,7.3,21.24a39.71,39.71,0,0,1,3.92,12.28,128.53,128.53,0,0,1,.67,14l.63,29.17.71,32.92c0,1.93,3,1.93,3,0Z" transform="translate(-621.95 -201.32)"/><path class="cls-2" d="M873.58,574.89a39.44,39.44,0,0,1-5.67-25.11c.82-9.09,3.87-17.85,6.86-26.41l-2.95-.4a89.82,89.82,0,0,1,.33,13.82c-.13,2.27-.34,4.55-.64,6.8s-.88,4.49-1.06,6.75c-.33,4.14,3,7,4.61,10.47a22.5,22.5,0,0,1,2.05,11.79c-.11.92-.65,3.48-2.05,3.14s-1.47-2.82-1.53-3.87c-.1-1.92-3.1-1.94-3,0,.17,3.13,1.71,7.93,5.85,6.74,3.94-1.14,4-6.75,3.74-10a26.84,26.84,0,0,0-4.69-13.18,16.1,16.1,0,0,1-1.64-2.53,6.64,6.64,0,0,1-.13-4c.47-2.59.87-5.19,1.14-7.81a89.7,89.7,0,0,0,0-18.17,1.51,1.51,0,0,0-3-.4c-3.13,9-6.22,18.13-7,27.67A41.93,41.93,0,0,0,871,576.4c1,1.63,3.63.12,2.59-1.51Z" transform="translate(-621.95 -201.32)"/><path class="cls-2" d="M874.63,588.11c-.28,3.5-.3,7.83,2.68,10.29a3.8,3.8,0,0,0,3.25,1,3.7,3.7,0,0,0,2.22-1.65c1.23-1.87.67-4-.24-5.87a9.19,9.19,0,0,1-1.11-2.75c0,.19,0-.29,0-.39s0-.2,0-.3c0,.24,0-.07,0-.12s0-.19.08-.29-.08.11.06-.1.06-.09,0,0,.34-.28.14-.15a1.52,1.52,0,0,0,0-2.59,4.18,4.18,0,0,0-6.18,3.52c0,1.93,3,1.94,3,0a2.44,2.44,0,0,1,0-.27c0,.17,0,.13,0,0s.07-.17,0,0l.13-.23c.06-.12.09-.13,0,0,0-.07.12-.13.18-.2s.13-.11,0,0a2.82,2.82,0,0,1,.29-.18s.27-.14.12-.07.1,0,.13,0l.26-.07c.21-.05-.22,0,0,0H880c.22,0-.23-.05,0,0,0,0,.29.09.13,0s.17.11.18.11v-2.59a4.58,4.58,0,0,0-1.71,4.85c.29,1.73,1.47,3.15,1.92,4.8a.57.57,0,0,1,0,.32c0,.09,0,.51,0,.26a3.07,3.07,0,0,1-.13.5c0,.16,0,0,0,0a3.07,3.07,0,0,1-.17.31s-.2.26-.09.14-.06.05-.07.05-.22.16,0,0a.75.75,0,0,1-.17.1c-.18,0,.06,0,.05,0s-.23,0,0,0c0,0-.23,0-.09,0s-.24-.07-.09,0a3,3,0,0,1-1.31-1.26,5.38,5.38,0,0,1-.74-1.92,11.37,11.37,0,0,1-.23-2.42c0-.92,0-1.84.13-2.76a1.5,1.5,0,0,0-3,0Z" transform="translate(-621.95 -201.32)"/><path class="cls-2" d="M935,512.33a14.65,14.65,0,0,1,.92-10.51c.87-1.71,2.08-3.22,2.87-5a16.84,16.84,0,0,0,1.32-5c.41-3.43,0-7,.84-10.34s3.61-5.65,4.64-8.9c.68-2.15.25-4.35.12-6.55-.08-1.57,0-3.57,1.5-4.49l-2.05-.54c1.64,3.19,1.49,6.86,1.61,10.35a33.41,33.41,0,0,0,.5,5.19c.37,2,1.19,3.82,1.64,5.78.87,3.71,0,7.55.35,11.31a23.32,23.32,0,0,0,1.33,5.51c.59,1.75,1.19,3.51.58,5.34h2.89a28.47,28.47,0,0,0-2.63-5.65A17.59,17.59,0,0,0,948,494.4c-1.38-1.13-3.42-1.66-4.79-.18s-1.06,3.76-1,5.48c.1,3.68.93,8.2-1.55,11.34a4,4,0,0,1-3.54,1.68,2.79,2.79,0,0,1-2.69-2c-.45-1.88-3.34-1.09-2.89.79.72,3,3.86,4.5,6.74,4.15,3.48-.41,5.73-3.45,6.59-6.64a19.44,19.44,0,0,0,.51-5.59c0-1.17-.12-2.34-.16-3.51,0-.92-.28-2.47.1-3.33.21-.44-.17-.3.28-.24s.83.64,1.07.9a18.49,18.49,0,0,1,1.77,2.37,25.36,25.36,0,0,1,2.78,5.65,1.51,1.51,0,0,0,2.89,0c1.32-3.91-1.26-7.42-1.76-11.21-.53-4,.43-8.08-.39-12.09-.41-2-1.24-3.85-1.67-5.83a31.88,31.88,0,0,1-.5-5.85c-.1-3.73-.25-7.44-2-10.81a1.52,1.52,0,0,0-2.06-.54c-3.35,2.07-3,6-2.77,9.43A8.39,8.39,0,0,1,941.6,474a34,34,0,0,0-2.75,4.46c-1.55,3.52-1.36,7.4-1.55,11.16a17.18,17.18,0,0,1-1,5.55c-.77,1.91-2.14,3.51-3,5.35a17.89,17.89,0,0,0-1.14,12.64,1.51,1.51,0,0,0,2.9-.8Z" transform="translate(-621.95 -201.32)"/><path class="cls-2" d="M881.7,484.24a33.63,33.63,0,0,1,5.88-20.49c.4-.56,2-2.5,2.83-1.78.43.37.54,1.52.67,2a19.23,19.23,0,0,1,.44,2.82,20.2,20.2,0,0,1-1.76,10.05c-1.27,2.74-4.42,7.62-8,5.27-1.63-1-3.13,1.54-1.52,2.59,4,2.59,8.38-.3,10.66-3.7a22.75,22.75,0,0,0,3.71-12.68c0-3.15-.49-10.47-5.29-9.43-2.06.44-3.54,2.13-4.63,3.8a35.79,35.79,0,0,0-3.14,6,37,37,0,0,0-2.82,15.54c.06,1.93,3.07,1.94,3,0Z" transform="translate(-621.95 -201.32)"/><path class="cls-2" d="M702.8,349.31q38.85,28.88,78.34,56.87,11.22,8,22.5,15.85c1.59,1.11,3.09-1.49,1.51-2.59q-39.66-27.75-78.7-56.38-11.1-8.13-22.14-16.34c-1.55-1.15-3,1.45-1.51,2.59Z" transform="translate(-621.95 -201.32)"/><path class="cls-2" d="M804.86,421.43c4.88.12,9,3.11,13,5.72q6.63,4.43,13.12,9.06t13,9.61L845.5,447c.2.15.55.6.76.59l.1.09,0-.64s-1,.68-1,.74a7.07,7.07,0,0,0-1.27,1.11,7.65,7.65,0,0,0-1.94,5.14c0,4.68,4.69,7.86,9.12,6.85,1.88-.43,1.08-3.32-.8-2.89a4.3,4.3,0,0,1-4.52-6.63c1-1.45,3.39-1.95,3.39-4a2.91,2.91,0,0,0-1.43-2.25c-1-.77-2-1.53-3-2.29q-12.49-9.51-25.57-18.23c-4.39-2.94-9-6-14.47-6.13-1.93,0-1.93,3,0,3Z" transform="translate(-621.95 -201.32)"/><path class="cls-2" d="M704.63,348.72a3.94,3.94,0,0,1,3-3.65c2.1-.7,4.34.05,6.23,1,2.2,1.11,4.24,2.53,6.32,3.83s4.39,2.74,6.6,4.09q13.14,8.07,26.55,15.67,26.91,15.25,54.85,28.63,15.7,7.53,31.69,14.43c1.76.76,3.29-1.83,1.52-2.59q-29.82-12.88-58.64-27.89T726.51,350.3c-2.6-1.6-5.2-3.23-7.78-4.86a22.42,22.42,0,0,0-7.25-3.41c-4.36-.89-10,1.58-9.85,6.69,0,1.92,3,1.93,3,0Z" transform="translate(-621.95 -201.32)"/><path class="cls-2" d="M841.32,411.56a35.06,35.06,0,0,0,21.23,9.22,1.5,1.5,0,0,0,1.5-1.5,18.45,18.45,0,0,0-5.2-13.1l.38,1.46a54.73,54.73,0,0,1,4.62-10.52,66,66,0,0,1,6.77-9.41c2-2.4,3.16-5,2.31-8.17-.68-2.5-2.25-4.65-3.62-6.81-1.22-1.92-3-4.42-1.59-6.69l-1.3.74a228.67,228.67,0,0,0,73-12.22q10-3.42,19.71-7.77c1.75-.78.23-3.37-1.52-2.59a226,226,0,0,1-59.82,17.3c-5.2.76-10.43,1.31-15.68,1.69s-10.31.35-15.47.59c-1.84.09-2.44,2.35-2.46,3.93a9.3,9.3,0,0,0,1.17,4.21c1.43,2.84,3.84,5.31,4.68,8.42.58,2.11-.31,3.79-1.67,5.4a78.08,78.08,0,0,0-5,6.37,58.05,58.05,0,0,0-7.08,14.74,1.5,1.5,0,0,0,.39,1.46,15.34,15.34,0,0,1,4.32,11l1.5-1.5a31.78,31.78,0,0,1-19.11-8.34c-1.41-1.31-3.54.81-2.12,2.12Z" transform="translate(-621.95 -201.32)"/><path class="cls-2" d="M958.91,346.89l8,0a29.32,29.32,0,0,1,3.38,0c.53.06.5,0,.49.34s-.45.84-.66,1.1a20.11,20.11,0,0,1-2.64,2.32l-2.66,2.25-6.1,5.13c-1.21,1,.11,2.84,1.46,2.51,13.09-3.16,24.73-10.18,37.33-14.68,11.37-4.06,24.32-6.16,35.44-.21,5.13,2.75,9.49,7,11.48,12.6.65,1.8,3.55,1,2.9-.8-3.84-10.73-14.67-17.07-25.6-18.3-14.1-1.6-27.63,4.53-40.15,10.17-7.22,3.25-14.48,6.46-22.2,8.33l1.46,2.5,7.62-6.41c1.93-1.63,4.72-3.34,5.28-6a3.09,3.09,0,0,0-.92-3c-1-.9-2.4-.85-3.67-.85l-10.21,0a1.5,1.5,0,0,0,0,3Z" transform="translate(-621.95 -201.32)"/><path class="cls-2" d="M1010.85,370.48c-2.78-2.27-1.86-6.26.34-8.58,2.5-2.63,6.2-4.15,9.63-5.11a30.91,30.91,0,0,1,22.62,2.45c1.7.91,3.22-1.68,1.52-2.59a34.09,34.09,0,0,0-20.94-3.59c-6.24.91-14.59,3.78-17.21,10.12-1.3,3.14-.82,7.19,1.92,9.42,1.48,1.21,3.62-.9,2.12-2.12Z" transform="translate(-621.95 -201.32)"/><path class="cls-2" d="M1006.69,372.32c8.92,6.93,19.92,9.46,31,10.1,5.74.33,11.5.2,17.25,0,5.47-.2,11-.67,16.47-.3,5.72.38,11.63,1.88,15.37,6.52l1.46-2.5c-10.41-4.13-22.93-.26-29.49,8.71a1.5,1.5,0,0,0,.24,1.82c7.34,6.29,16.9,8.32,26.34,8.77a138.54,138.54,0,0,0,14.41-.12,14.41,14.41,0,0,0,7.24-1.91c2.19-1.46,3.94-3.68,5.76-5.56l14.4-14.89c1.34-1.39-.78-3.51-2.12-2.12l-11.83,12.23q-3,3.07-5.93,6.14a9.41,9.41,0,0,1-6.07,3,100.88,100.88,0,0,1-13.69.32,63.44,63.44,0,0,1-13.31-1.57,31.2,31.2,0,0,1-13.08-6.41l.23,1.82c5.81-7.95,17-10.93,26.1-7.33,1.56.61,2.28-1.49,1.46-2.51-6.87-8.54-19.36-7.69-29.17-7.29-11.3.46-22.89,1.13-34-1.38a42.52,42.52,0,0,1-16.92-7.63c-1.51-1.17-3.65.93-2.12,2.12Z" transform="translate(-621.95 -201.32)"/><path class="cls-2" d="M1126.24,383.2c1.22.55,1.62,1.73,1.9,3a47.24,47.24,0,0,1,.74,5.3c.41,3.73.65,7.49.73,11.25s0,7.52-.28,11.27c-.12,1.79-.31,3.58-.48,5.37-.15,1.54.1,3,1.48,4a16.32,16.32,0,0,0,4.28,1.54c1.49.45,3,.88,4.49,1.3,2.91.8,5.82,1.56,8.73,2.35a147.51,147.51,0,0,1,17.05,5.43,50.78,50.78,0,0,1,16.86,10.68,1.5,1.5,0,0,0,2.12-2.12c-8.66-8.59-20.31-12.73-31.82-15.95-5.91-1.65-11.88-3.11-17.75-4.92a7.83,7.83,0,0,1-2.14-.72c-.53-.39-.36-1-.3-1.56.2-2.12.42-4.23.55-6.35.23-3.75.29-7.52.18-11.27a125.77,125.77,0,0,0-1-12.71c-.39-3-.67-7-3.84-8.41-1.74-.79-3.27,1.8-1.51,2.59Z" transform="translate(-621.95 -201.32)"/><path class="cls-2" d="M1180.7,444.88c4.55,7.7,9.21,15.33,13.63,23.11,4,7.09,7.86,14.68,9,22.85a27.36,27.36,0,0,1-1.23,13.1l2.75-.36c-4.15-5.66-8.26-11.36-12.47-17A78.47,78.47,0,0,0,1180.06,473a35.44,35.44,0,0,0-15.8-7.79,26.1,26.1,0,0,0-8.86-.18c-2.57.41-5.68,1.15-7.33,3.34a7.59,7.59,0,0,0-.75,7.06c1,2.74,3.26,4.71,5.51,6.46a117.42,117.42,0,0,1,12.6,11.19,110.92,110.92,0,0,1,19.39,27.64,108.2,108.2,0,0,1,10.66,36.45c.2,1.9,3.2,1.92,3,0A113.41,113.41,0,0,0,1173.77,498a109.19,109.19,0,0,0-11-11.69c-2-1.85-4.11-3.63-6.27-5.32s-4.46-3.17-5.84-5.45c-1.13-1.86-1.47-4.77.6-6.12,2.23-1.44,5.55-1.72,8.13-1.7a28.89,28.89,0,0,1,15.76,5.34c5.47,3.72,9.86,8.86,13.84,14.08,4.51,5.93,8.84,12,13.24,18a1.53,1.53,0,0,0,2.75-.36c5.93-16.71-5.29-33.58-13.45-47.38l-8.27-14a1.5,1.5,0,0,0-2.59,1.51Z" transform="translate(-621.95 -201.32)"/><path class="cls-2" d="M1196.67,557.36l-4.54,15.57,2.74-.36a216.48,216.48,0,0,0-21.76-34.12q-3.15-4.05-6.48-8c-2-2.34-4-4.92-6.48-6.73-1.86-1.34-4.41-2.51-6.74-1.8-2.93.89-3.68,4.11-3,6.77.78,2.9,2.48,5.7,3.85,8.35s2.8,5.26,4.3,7.84a177.81,177.81,0,0,0,9.89,15.13,182.45,182.45,0,0,0,24,26.94,179.41,179.41,0,0,0,32.68,23.82,1.5,1.5,0,0,0,1.51-2.59,178.06,178.06,0,0,1-51.29-44,175.69,175.69,0,0,1-18.44-28.5c-1.28-2.47-2.91-5.1-3.64-7.8-.27-1-.39-2.46.73-3a3.45,3.45,0,0,1,2.79.36c2.51,1.17,4.25,3.45,6,5.49q3.16,3.6,6.16,7.35a213.29,213.29,0,0,1,23.22,36,1.51,1.51,0,0,0,2.74-.36l4.55-15.57c.54-1.85-2.36-2.65-2.9-.79Z" transform="translate(-621.95 -201.32)"/><path class="cls-2" d="M1184.14,612.07a97.79,97.79,0,0,1,11.68,11.16c3.51,4.19,5.92,9.09,8.11,14.06,4.52,10.21,9,20.55,11.72,31.42a70.85,70.85,0,0,1,2.18,18.62c0,1.93,3,1.93,3,0,.28-11.53-2.71-22.78-6.75-33.48-2-5.33-4.27-10.56-6.55-15.78s-4.61-10.52-8.11-15.11c-3.76-4.94-8.46-9-13.16-13-1.46-1.24-3.59.87-2.12,2.13Z" transform="translate(-621.95 -201.32)"/><path class="cls-2" d="M1187.85,610c-1.08-1.14,1-2.27,1.83-2.43a14.18,14.18,0,0,1,5.38.42,97.66,97.66,0,0,1,10.7,3.38c6.28,2.11,13.53,3.42,19.54-.15a1.5,1.5,0,0,0-1.52-2.59c-7.19,4.27-15.77.26-22.87-2.11-3.69-1.23-8.1-2.63-12-1.84-3.3.66-5.82,4.62-3.15,7.44,1.33,1.41,3.45-.71,2.12-2.12Z" transform="translate(-621.95 -201.32)"/><path class="cls-2" d="M1080.93,745.2l16.42-30.89-2.8-.75-1.31,21.9a1.51,1.51,0,0,0,1.9,1.45,91.54,91.54,0,0,0,40.33-32.47,89.11,89.11,0,0,0,11.67-23.5,27.64,27.64,0,0,1,2-5.52,4.16,4.16,0,0,1,1.77-1.89,3.25,3.25,0,0,1,2.94.71,35.9,35.9,0,0,1,9.9,9.79,37.73,37.73,0,0,1,3.74,6.79c.9,2.14,1.53,4.38,2.3,6.56,1.49,4.18,3.54,8.28,7.93,9.94a1.49,1.49,0,0,0,1.69-.69c3.73-7.23,7.5-14.78,8.17-23,.62-7.74-2.58-14.42-5.87-21.19a43,43,0,0,1-4.17-11.61l-1.84,1.85c7.37,1.89,12.34,8.1,16.49,14.08,4.42,6.36,8.51,13,15,17.6a20.16,20.16,0,0,0,12,3.91c1.93,0,1.94-3,0-3-7.82.15-13.92-5.69-18.4-11.5-4.61-6-8.14-12.78-13.71-18a24.4,24.4,0,0,0-10.49-6,1.53,1.53,0,0,0-1.85,1.85c1.16,7,5.14,12.91,7.76,19.36a27.69,27.69,0,0,1,2.26,10.41,34.32,34.32,0,0,1-2.17,11.28,99.89,99.89,0,0,1-5.68,12.46l1.7-.69c-3.7-1.4-5.14-5.73-6.28-9.15a50.77,50.77,0,0,0-5.46-12.11,41.19,41.19,0,0,0-9.61-10.23c-1.86-1.41-4-3-6.45-2.46a6.51,6.51,0,0,0-4.17,3.42,30.06,30.06,0,0,0-2.21,5.89q-1,3.11-2.21,6.14a85.32,85.32,0,0,1-5.93,11.82,89.44,89.44,0,0,1-16.78,20.4,86,86,0,0,1-25.1,15.86l1.9,1.45,1.31-21.9a1.51,1.51,0,0,0-2.79-.76l-16.42,30.89c-.9,1.7,1.68,3.22,2.59,1.51Z" transform="translate(-621.95 -201.32)"/><path class="cls-2" d="M979.17,455.87A119.22,119.22,0,0,0,992.34,471c4.44,4.29,9.62,8.09,13.11,13.26a34.67,34.67,0,0,1,4,8.85c1.12,3.42,2.19,6.85,3.28,10.27l6.67,20.91,7.57,23.76,2.51-1.46-18.62-21a1.52,1.52,0,0,0-2.57,1.06c1.05,10.56,4.27,20.67,7.55,30.71l2.51-1.46-8.23-8.81a1.51,1.51,0,0,0-2.5.66,45.34,45.34,0,0,0,.2,34.24,1.56,1.56,0,0,0,1.84,1,1.51,1.51,0,0,0,1.05-1.85,42.91,42.91,0,0,1-.2-32.64l-2.51.66,8.22,8.81a1.51,1.51,0,0,0,2.51-1.45c-3.19-9.77-6.41-19.65-7.44-29.92l-2.56,1.06,18.63,21a1.51,1.51,0,0,0,2.5-1.46q-6.78-21.25-13.55-42.53-1.71-5.34-3.41-10.69a52.82,52.82,0,0,0-3.57-9.14c-3-5.52-7.91-9.57-12.47-13.74a114.83,114.83,0,0,1-15.12-16.8c-1.13-1.54-3.73,0-2.59,1.52Z" transform="translate(-621.95 -201.32)"/><path class="cls-2" d="M1008.12,581.85q-2.94,16.71-6.58,33.28l1.05-1c-1.57.3-.94-3-.82-3.69a22,22,0,0,0,.37-4.66,21.54,21.54,0,0,0-2.35-9,1.52,1.52,0,0,0-2.75.36l-13.8,54c-.59,2.31-1,4.73-1.83,7-.38,1.08-1.32,3.38-2.8,3l1.1,1.45q.19-8.12-.19-16.24c-.2-4,.08-10-4.59-11.57a4.53,4.53,0,0,0-5.28,1.81A51.52,51.52,0,0,0,966,642.8a124.8,124.8,0,0,0-11.45,29.65c-.46,1.87,2.44,2.67,2.9.79a121.35,121.35,0,0,1,8.85-24.5q1.46-2.94,3-5.81c.52-.92,1.05-1.84,1.59-2.74a7.42,7.42,0,0,1,1.75-2.5c1.55-1,2.94,1.12,3.28,2.36a29.14,29.14,0,0,1,.59,6.26q.39,8.12.19,16.24a1.54,1.54,0,0,0,1.11,1.45c3.63.91,5.82-2.75,6.68-5.73,1.39-4.82,2.49-9.74,3.74-14.6l7.49-29.29,4.21-16.47-2.75.36a18,18,0,0,1,1.68,11.33c-.3,1.76-.67,3.64.23,5.3a3.94,3.94,0,0,0,4.29,2.08,1.47,1.47,0,0,0,1-1.05q3.65-16.57,6.58-33.28c.33-1.89-2.56-2.7-2.89-.8Z" transform="translate(-621.95 -201.32)"/><path class="cls-2" d="M955.06,669.74a55.1,55.1,0,0,0-23.77,32.8,52.87,52.87,0,0,0-1.63,11.68,1.52,1.52,0,0,0,.74,1.29c3.12,1.89,6.51-.16,8.81-2.38,2.85-2.75,5.41-5.88,8-8.86q8-9.22,15.41-19,4.23-5.58,8.24-11.34l-2.74-1.15-2,10.68a1.55,1.55,0,0,0,.69,1.69c2.84,1.42,5.37-.86,7.52-2.51s4.24-3.4,6.24-5.24A92.21,92.21,0,0,0,991.73,665a93.18,93.18,0,0,0,14.81-29.53,90.93,90.93,0,0,0,3.4-18.5l-3,.4,1.5,7.93c.4,2.12.46,4.92,1.77,6.72,2.67,3.64,7.08.24,8.82-2.48a61.54,61.54,0,0,0,3.33-6.46c1-2.17,2-4.38,3-6.61a143.58,143.58,0,0,0,9-30.22c.34-1.89-2.55-2.7-2.9-.8a143.85,143.85,0,0,1-6.88,25q-2.34,6.21-5.26,12.17a53.72,53.72,0,0,1-2.83,5.43c-.56.87-2.12,2.9-3.37,2.56-.8-.21-.88-1.59-1-2.24-.24-1.28-.48-2.56-.73-3.84l-1.5-7.93c-.33-1.76-2.82-1.19-2.94.4A89.85,89.85,0,0,1,981.81,672q-3,3.06-6.24,5.82-1.64,1.38-3.34,2.67c-.78.6-2.8,2.58-3.87,2l.69,1.69,2-10.67a1.51,1.51,0,0,0-2.74-1.16q-8.25,11.82-17.44,23-4.55,5.49-9.3,10.8c-1.5,1.67-3,3.42-4.59,5-1.25,1.18-3.28,2.85-5,1.78l.74,1.3a52.07,52.07,0,0,1,15.17-34.91,49.49,49.49,0,0,1,8.75-7c1.63-1,.12-3.62-1.52-2.59Z" transform="translate(-621.95 -201.32)"/><path class="cls-2" d="M1034,585.18c-.25-7.44-.15-14.9.31-22.33l-3,.4a26.13,26.13,0,0,0,7.58,10.62c1.65,1.33,4,1.15,4.54-1.14a17.69,17.69,0,0,0,.28-3.33c.07-1.26.13-2.52.17-3.79a145.14,145.14,0,0,0-6.54-47.52c-.57-1.84-3.47-1.06-2.89.79a142.64,142.64,0,0,1,6.16,52.17,2.48,2.48,0,0,0-.05.71l0,.18.34-.3c0-.21-1-.91-1.21-1.1a22.88,22.88,0,0,1-2.19-2.42,23.53,23.53,0,0,1-3.26-5.67,1.51,1.51,0,0,0-3,.4c-.46,7.43-.56,14.89-.31,22.33.06,1.93,3.06,1.94,3,0Z" transform="translate(-621.95 -201.32)"/><path class="cls-2" d="M980.58,455.9A75.74,75.74,0,0,1,1008,477.53a82.65,82.65,0,0,1,9.35,15.31c2.7,5.56,5.08,11.27,8,16.7a62.33,62.33,0,0,0,5.58,8.6c1.52,1.93,4.65,5.69,7,2.51,1.14-1.56-1.46-3.06-2.59-1.51.45-.62.72,0,0-.5a4.18,4.18,0,0,1-.44-.4,18.67,18.67,0,0,1-1.46-1.74c-1-1.18-1.83-2.43-2.66-3.7a77.45,77.45,0,0,1-4.28-7.52c-2.67-5.27-4.95-10.73-7.61-16a78.92,78.92,0,0,0-20.77-25.93,77.57,77.57,0,0,0-16.07-10c-1.74-.81-3.26,1.78-1.51,2.59Z" transform="translate(-621.95 -201.32)"/><path class="cls-2" d="M1050.89,414.82a290.17,290.17,0,0,1,43.13,44,284.84,284.84,0,0,1,17.92,25.45c5.75,9.19,11.2,18.65,13.67,29.3,2.82,12.13,2.31,24.72,1.84,37.07-.08,1.93,2.92,1.93,3,0,.43-11.2.81-22.5-1.09-33.6s-6.77-21-12.57-30.6A290.41,290.41,0,0,0,1053,412.7c-1.48-1.22-3.61.89-2.12,2.12Z" transform="translate(-621.95 -201.32)"/><path class="cls-2" d="M1127.65,550.74c.66,26.62.82,55-13.14,78.67a65.59,65.59,0,0,1-12.91,15.82c-1.44,1.29.68,3.41,2.12,2.13,20.11-17.88,26.12-45.66,27-71.43.29-8.39.12-16.8-.09-25.19,0-1.93-3-1.94-3,0Z" transform="translate(-621.95 -201.32)"/><path class="cls-2" d="M1100.36,645.45a36.55,36.55,0,0,1-3.26,8.09,37.1,37.1,0,0,1-2.19,3.49,4.11,4.11,0,0,1-.82,1.05c.42-.25,0,.33.13-.15.07-.2,0-.52.06-.73.23-1.05.87-1.92,1-3s-.19-2.9-1.59-3.16c-2.35-.44-5.21.82-7.1,2.09-4.87,3.29-7.07,8.74-10.29,13.42-3.37,4.88-8.39,8.59-12.81,12.47l-16.91,14.83c-1.46,1.27.67,3.39,2.12,2.12l20.1-17.63a70.35,70.35,0,0,0,8.53-8.2c2.49-3.07,4.18-6.63,6.41-9.87s5.56-6.35,9.75-6.26l-1.3-.74c.5.8-.48,2.08-.74,2.87a5,5,0,0,0-.06,2.86,2.85,2.85,0,0,0,4.79,1.17c1.77-1.59,3-4.17,4.12-6.26a40.12,40.12,0,0,0,2.94-7.66,1.5,1.5,0,0,0-2.89-.79Z" transform="translate(-621.95 -201.32)"/><path class="cls-2" d="M1047.89,694.46a137.45,137.45,0,0,0-29.39,17.32,1.53,1.53,0,0,0,0,2.59c4.26,3,9.43-.43,13.07-2.82l14.72-9.68c4.83-3.17,9.67-6.32,14.48-9.51a104.85,104.85,0,0,0,12.78-9.61c4.08-3.7,7.51-8.32,12.62-10.7l-2.21-.89,1,3.31a1.51,1.51,0,0,0,2.2.9,135.2,135.2,0,0,0,44.74-60c.68-1.81-2.21-2.59-2.89-.8a132.68,132.68,0,0,1-43.36,58.22l2.2.89-1-3.31a1.53,1.53,0,0,0-2.21-.9c-4.22,2-7.39,5.41-10.61,8.66a81.23,81.23,0,0,1-11.78,9.62c-9.16,6.29-18.56,12.26-27.85,18.36-2.49,1.64-4.94,3.42-7.54,4.89-2.06,1.16-4.7,2.33-6.85.79v2.59a137.2,137.2,0,0,1,29.39-17.32c1.76-.76.24-3.34-1.52-2.59Z" transform="translate(-621.95 -201.32)"/><path class="cls-2" d="M1131,615.34c5.85-12.33,11.52-24.77,13.56-38.39s1.11-27.42-.85-41c-1.12-7.7-2.58-15.34-4.07-23-.37-1.89-3.26-1.09-2.89.8,2.58,13.24,5.1,26.56,5.8,40.06s-.68,26.66-5.18,39.34a222.1,222.1,0,0,1-9,20.66c-.82,1.73,1.77,3.26,2.59,1.51Z" transform="translate(-621.95 -201.32)"/><path class="cls-2" d="M1060.12,413.09c13.42,9,24.8,20.66,35,33.12,5.14,6.27,10,12.76,14.76,19.32,4.91,6.77,9.91,13.52,14.44,20.56a76.15,76.15,0,0,1,11.21,27.37c.35,1.89,3.24,1.09,2.89-.8a75.33,75.33,0,0,0-9.58-25c-4.41-7.37-9.61-14.29-14.63-21.26-9.61-13.36-19.58-26.57-31.26-38.22a144.17,144.17,0,0,0-21.34-17.71c-1.61-1.08-3.11,1.52-1.51,2.59Z" transform="translate(-621.95 -201.32)"/><path class="cls-2" d="M1053.89,414.67a30.78,30.78,0,0,1,9.45-2,1.5,1.5,0,0,0,0-3,33.63,33.63,0,0,0-10.25,2.07,1.56,1.56,0,0,0-1,1.85,1.53,1.53,0,0,0,1.85,1.05Z" transform="translate(-621.95 -201.32)"/><path class="cls-2" d="M885.62,706.11c10.64,3.78,18.75,12.35,29.44,16.09,5.77,2,11.85,2.95,17.66,4.82s11.65,4.36,17.64,6.05c12.14,3.41,24.88,3.42,37.39,3.35a170,170,0,0,0,19.28-.81c6.38-.76,12.55-2.76,18.94-3.44A41.7,41.7,0,0,1,1059,743.61c1.39,1.34,3.51-.78,2.12-2.12a44.84,44.84,0,0,0-29-12.5c-6.13-.28-12,1.13-18,2.39a101.58,101.58,0,0,1-19.44,2c-12.72.25-25.81.63-38.33-1.91-6.22-1.26-12.1-3.5-18-5.65-2.91-1-5.85-2-8.84-2.84s-6.22-1.49-9.31-2.32a47.59,47.59,0,0,1-9.13-3.36,86,86,0,0,1-8.16-4.86c-5.29-3.47-10.51-7.06-16.51-9.19-1.83-.65-2.61,2.25-.8,2.89Z" transform="translate(-621.95 -201.32)"/><path class="cls-2" d="M1061.09,742.92a35,35,0,0,0,21.41,2.83c1.89-.35,1.09-3.24-.8-2.9a31.5,31.5,0,0,1-19.1-2.52c-1.73-.82-3.26,1.76-1.51,2.59Z" transform="translate(-621.95 -201.32)"/><path class="cls-2" d="M868.9,479.94c.67-1.61,2.06-2.8,3.23-4a29.36,29.36,0,0,0,3.19-4.09c1.94-3,3.42-6.24,5.58-9.06,1.86-2.44,4.33-4.72,7.42-5.37s6.4.46,9-1.94c1.43-1.31-.69-3.42-2.12-2.13-1.19,1.09-3.06.88-4.55.89a13.27,13.27,0,0,0-4.92.84,17.82,17.82,0,0,0-7.46,6.19c-2.17,2.91-3.7,6.22-5.7,9.24s-5.18,5.25-6.6,8.67c-.74,1.78,2.16,2.56,2.89.8Z" transform="translate(-621.95 -201.32)"/><path class="cls-2" d="M867.54,478.65c-1.53-3.81.07-7.69,2.11-11a40,40,0,0,1,7.51-8.93,19.45,19.45,0,0,1,10.41-4.93,14.42,14.42,0,0,1,5.8.59c2,.59,3.94,1.28,6,1,1.9-.21,1.92-3.21,0-3-2.43.27-4.6-.9-6.94-1.38a17.28,17.28,0,0,0-6.53,0,23.35,23.35,0,0,0-11.21,5.85,42.61,42.61,0,0,0-8.12,10c-2.18,3.75-3.66,8.32-2,12.55.7,1.77,3.61,1,2.89-.8Z" transform="translate(-621.95 -201.32)"/><path class="cls-2" d="M840.35,412.64h3.52a1.54,1.54,0,0,0,1.06-.44,1.5,1.5,0,0,0-1.06-2.56h-3.52a1.5,1.5,0,0,0-1.5,1.5,1.53,1.53,0,0,0,1.5,1.5Z" transform="translate(-621.95 -201.32)"/></svg>